<svg width="54" height="54" viewBox="0 0 54 54" fill="none" xmlns="http://www.w3.org/2000/svg">
<path d="M0 0H49C51.7614 0 54 2.23858 54 5V49C54 51.7614 51.7614 54 49 54H0V0Z" fill="#2E2CB3"/>
<path d="M36.0001 36.0001L31.6571 31.6571M31.6571 31.6571C32.4 30.9142 32.9893 30.0323 33.3913 29.0616C33.7934 28.091 34.0003 27.0507 34.0003 26.0001C34.0003 24.9495 33.7934 23.9092 33.3913 22.9385C32.9893 21.9679 32.4 21.086 31.6571 20.3431C30.9142 19.6002 30.0323 19.0109 29.0617 18.6089C28.091 18.2068 27.0507 17.9999 26.0001 17.9999C24.9495 17.9999 23.9092 18.2068 22.9386 18.6089C21.9679 19.0109 21.086 19.6002 20.3431 20.3431C18.8428 21.8434 17.9999 23.8783 17.9999 26.0001C17.9999 28.1219 18.8428 30.1568 20.3431 31.6571C21.8434 33.1574 23.8783 34.0003 26.0001 34.0003C28.1219 34.0003 30.1568 33.1574 31.6571 31.6571Z" stroke="#F4F3F3" stroke-width="2.5" stroke-linecap="round" stroke-linejoin="round"/>
</svg>
